<?xml version="1.0" encoding="utf-8"?>
<!-- Generator: Adobe Illustrator 22.1.0, SVG Export Plug-In . SVG Version: 6.00 Build 0)  -->
<svg version="1.1" id="Capa_1" xmlns="http://www.w3.org/2000/svg" xmlns:xlink="http://www.w3.org/1999/xlink" x="0px" y="0px"
	 viewBox="0 0 30 30" style="enable-background:new 0 0 30 30;" xml:space="preserve">
<style type="text/css">
	.st0{fill:#18b46b;}
</style>
<g>
	<path class="st0" d="M23.1,3.6h-4.2C18.7,1.6,17.1,0,15,0s-3.7,1.6-3.9,3.6H6.9c-2.2,0-4,1.8-4,4v0.1c0,1.7,1.1,3.1,2.6,3.7v15.1
		C5.5,28.4,7,30,9,30H21c1.9,0,3.5-1.6,3.5-3.5V11.5c1.5-0.6,2.6-2,2.6-3.7V7.6C27.1,5.4,25.3,3.6,23.1,3.6z M15,2.2
		c0.8,0,1.5,0.6,1.7,1.4h-3.4C13.5,2.8,14.2,2.2,15,2.2z M22.3,26.5c0,0.7-0.6,1.3-1.3,1.3H9c-0.7,0-1.3-0.6-1.3-1.3V11.7h14.6V26.5
		z M24.9,7.7c0,1-0.8,1.8-1.8,1.8H6.9c-1,0-1.8-0.8-1.8-1.8V7.6c0-1,0.8-1.8,1.8-1.8h16.2c1,0,1.8,0.8,1.8,1.8V7.7z"/>
	<path class="st0" d="M14.9,25.3c0.6,0,1.1-0.5,1.1-1.1v-9.1c0-0.6-0.5-1.1-1.1-1.1s-1.1,0.5-1.1,1.1v9.1
		C13.8,24.8,14.3,25.3,14.9,25.3z"/>
	<path class="st0" d="M19.1,25.3c0.6,0,1.1-0.5,1.1-1.1v-9.1c0-0.6-0.5-1.1-1.1-1.1c-0.6,0-1.1,0.5-1.1,1.1v9.1
		C18,24.8,18.5,25.3,19.1,25.3z"/>
	<path class="st0" d="M10.8,25.3c0.6,0,1.1-0.5,1.1-1.1v-9.1c0-0.6-0.5-1.1-1.1-1.1s-1.1,0.5-1.1,1.1v9.1
		C9.7,24.8,10.2,25.3,10.8,25.3z"/>
</g>
</svg>
