<?xml version="1.0" encoding="utf-8"?>
<!-- Generator: Adobe Illustrator 22.1.0, SVG Export Plug-In . SVG Version: 6.00 Build 0)  -->
<svg version="1.1" id="Capa_1" xmlns="http://www.w3.org/2000/svg" xmlns:xlink="http://www.w3.org/1999/xlink" x="0px" y="0px"
	 viewBox="0 0 30 30" style="enable-background:new 0 0 30 30;" xml:space="preserve">
<style type="text/css">
	.st0{fill:#18b46b;}
</style>
<path class="st0" d="M25.6,4.4L25.6,4.4c-2.5-2.5-6.6-2.5-9.1,0L2.9,18.1c-0.1,0.1-0.2,0.3-0.3,0.4c-0.1,0.2-0.1,0.3-0.1,0.5v7.3
	c0,0.7,0.6,1.3,1.3,1.3h7.3c0.2,0,0.3,0,0.5-0.1c0.2-0.1,0.3-0.2,0.4-0.3l13.7-13.7C28.1,10.9,28.1,6.9,25.6,4.4z M23.8,6.2
	c1.2,1.2,1.4,3,0.7,4.5l-5.2-5.2C20.8,4.7,22.6,4.9,23.8,6.2z M11.1,24.5l-1.9-1.9l11.9-11.9l1.9,1.9L11.1,24.5z M17.4,7l1.9,1.9
	L7.4,20.8l-1.9-1.9L17.4,7z M5,22l3,3H5V22z"/>
</svg>
